<svg width="169" height="92" viewBox="0 0 169 92" fill="none" xmlns="http://www.w3.org/2000/svg">
<path d="M38.904 91.536C33.784 91.536 28.92 91.024 24.312 90C19.704 88.976 15.608 87.3547 12.024 85.136C8.52533 82.832 5.752 79.9733 3.704 76.56C1.74133 73.0613 0.76 68.8373 0.76 63.888C0.76 63.4613 0.76 63.0347 0.76 62.608C0.76 62.096 0.802667 61.712 0.888 61.456H19.832C19.7467 61.712 19.704 62.0533 19.704 62.48C19.704 62.9067 19.704 63.2907 19.704 63.632C19.704 66.3627 20.4293 68.6667 21.88 70.544C23.416 72.4213 25.6347 73.8293 28.536 74.768C31.4373 75.7067 34.808 76.176 38.648 76.176C41.1227 76.176 43.2987 76.048 45.176 75.792C47.1387 75.4507 48.8453 75.024 50.296 74.512C51.832 73.9147 53.0693 73.232 54.008 72.464C55.032 71.696 55.7573 70.8 56.184 69.776C56.696 68.752 56.952 67.6 56.952 66.32C56.952 64.016 56.184 62.1387 54.648 60.688C53.1973 59.2373 51.1493 58 48.504 56.976C45.944 55.952 43.0427 55.0133 39.8 54.16C36.5573 53.3067 33.2293 52.4533 29.816 51.6C26.4027 50.6613 23.0747 49.552 19.832 48.272C16.5893 46.9067 13.688 45.2853 11.128 43.408C8.568 41.5307 6.52 39.1413 4.984 36.24C3.448 33.3387 2.68 29.84 2.68 25.744C2.68 21.392 3.576 17.6373 5.368 14.48C7.24533 11.3227 9.848 8.72 13.176 6.672C16.504 4.624 20.344 3.13066 24.696 2.19199C29.048 1.168 33.784 0.655998 38.904 0.655998C43.6827 0.655998 48.2053 1.168 52.472 2.19199C56.7387 3.13066 60.4933 4.66666 63.736 6.8C66.9787 8.93333 69.496 11.6213 71.288 14.864C73.1653 18.1067 74.104 21.9467 74.104 26.384V27.92H55.544V26.896C55.544 24.592 54.8613 22.6293 53.496 21.008C52.1307 19.3867 50.2107 18.1067 47.736 17.168C45.2613 16.2293 42.36 15.76 39.032 15.76C35.448 15.76 32.376 16.1013 29.816 16.784C27.3413 17.4667 25.4213 18.4907 24.056 19.856C22.776 21.136 22.136 22.672 22.136 24.464C22.136 26.512 22.8613 28.2187 24.312 29.584C25.848 30.864 27.896 32.016 30.456 33.04C33.1013 33.9787 36.0453 34.832 39.288 35.6C42.5307 36.368 45.8587 37.2213 49.272 38.16C52.6853 39.0987 56.0133 40.208 59.256 41.488C62.4987 42.768 65.4 44.3893 67.96 46.352C70.52 48.2293 72.568 50.576 74.104 53.392C75.64 56.208 76.408 59.5787 76.408 63.504C76.408 70.2453 74.7867 75.664 71.544 79.76C68.3013 83.856 63.864 86.8427 58.232 88.72C52.6 90.5973 46.1573 91.536 38.904 91.536ZM91.603 90V2.19199H109.139L144.467 49.552C144.979 50.1493 145.619 51.0027 146.387 52.112C147.155 53.136 147.88 54.16 148.563 55.184C149.246 56.208 149.715 57.0187 149.971 57.616H150.611C150.611 56.1653 150.611 54.7573 150.611 53.392C150.611 51.9413 150.611 50.6613 150.611 49.552V2.19199H168.659V90H151.123L115.027 41.488C114.174 40.2933 113.278 38.9707 112.339 37.52C111.4 36.0693 110.718 34.96 110.291 34.192H109.651C109.651 35.472 109.651 36.752 109.651 38.032C109.651 39.2267 109.651 40.3787 109.651 41.488V90H91.603Z" fill="white"/>
</svg>
